<svg xmlns="http://www.w3.org/2000/svg" xmlns:xlink="http://www.w3.org/1999/xlink" width="210" height="275" version="1.1" viewBox="0 0 210 275"><title>frog-green</title><desc>Created with Sketch.</desc><g id="Page-1" fill="none" fill-rule="evenodd" stroke="none" stroke-width="1"><g id="Artboard-2" transform="translate(-2186.000000, -1077.000000)"><g id="frog-green" transform="translate(2173.000000, 1077.000000)"><rect id="Rectangle-30" width="138" height="138" x="49" y="47" fill="#FFF" rx="9"/><circle id="Oval" cx="114" cy="37" r="37" fill="#FFF"/><circle id="Oval" cx="50" cy="47" r="37" fill="#FFF"/><circle id="Oval" cx="178" cy="47" r="37" fill="#FFF"/><circle id="Oval-29" cx="73" cy="141" r="24" fill="#86D035"/><circle id="Oval-29" cx="163" cy="141" r="24" fill="#86D035"/><g id="frog-green-+-Rectangle-30" fill="#75B92A" transform="translate(0.000000, 171.000000)"><ellipse id="frog-green" cx="46.538" cy="57.027" rx="26.5" ry="50.5" transform="translate(46.538193, 57.026578) rotate(-27.000000) translate(-46.538193, -57.026578)"/><rect id="Rectangle-30" width="56" height="15" x="13" y="89" rx="7.5"/></g><g id="frog-green-+-Rectangle-30" fill="#75B92A" transform="translate(189.000000, 228.500000) scale(-1, 1) translate(-189.000000, -228.500000) translate(142.000000, 171.000000)"><ellipse id="frog-green" cx="46.538" cy="57.027" rx="26.5" ry="50.5" transform="translate(46.538193, 57.026578) rotate(-27.000000) translate(-46.538193, -57.026578)"/><rect id="Rectangle-30" width="56" height="15" x="13" y="89" rx="7.5"/></g><rect id="Rectangle-30" width="138" height="138" x="49" y="137" fill="#86D035" rx="9"/><circle id="Oval-37" cx="73" cy="141" r="12" fill="#000" stroke="#FFF" stroke-width="5"/><circle id="Oval-37" cx="163" cy="141" r="12" fill="#000" stroke="#FFF" stroke-width="5"/><rect id="Rectangle-33" width="110" height="70" x="62" y="189" fill="#B5E97C" rx="9"/></g></g></g></svg>